<?xml version="1.0" encoding="utf-8"?>
<!-- Generator: Adobe Illustrator 24.0.1, SVG Export Plug-In . SVG Version: 6.00 Build 0)  -->
<svg version="1.1" id="Layer_1" xmlns="http://www.w3.org/2000/svg" xmlns:xlink="http://www.w3.org/1999/xlink" x="0px" y="0px"
	 viewBox="0 0 1024 1024" style="enable-background:new 0 0 1024 1024;" xml:space="preserve">
<style type="text/css">
	.st0{fill:#34846F;}
	.st1{opacity:0.7;fill:#FFFFFF;}
	.st2{fill:#FFFFFF;}
</style>
<rect class="st0" width="1024" height="1024"/>
<g>
	<g>
		<path class="st1" d="M606.9,485.8c25.8,10.5,48.6,21.4,68.4,33c19.8,11.6,37.4,27.9,53.2,48.9c15.6,21.1,23.5,46.8,23.5,77.2
			c0,33.5-7.5,62.4-22.5,86.5s-35.4,42.5-61.6,55.1c-26.1,12.6-55.4,19.1-88.2,19.1c-20.9,0-42.6-2.8-65.4-8.2
			c-26.3-5.4-51.7-14.7-76.3-27.9c-7.7-4-11.6-10.2-11.6-18.4c0-6.3,2.1-12.1,6.5-17c4.4-4.9,9.6-7.5,16-7.5c3.7,0,7.2,0.9,10.9,2.8
			c19.1,10,38.9,17.7,59.6,23.2c20.7,5.4,40.5,8.2,59.6,8.2c37.2,0,67.9-9.8,91.9-29.3c24-19.5,36.1-48.4,36.1-86.5
			c0-20.9-5.6-38.8-16.7-53.5c-11.1-14.7-24.4-26.5-39.8-35.1c-15.4-8.6-34.6-17.7-57.2-27.2c-23.2-10.3-37.7-17.9-43.5-22.5
			c-8.2-6.3-14.4-14.2-18.8-23.5c-4.4-9.3-6.5-18.8-6.5-28.2c0-17.7,6.7-32.8,20-45.3s33-18.8,58.9-18.8c25.8,0,55.8,7,89.8,21.1
			c9.1,4,13.7,10.7,13.7,19.8c0,6-2.1,11.4-6.1,16.3s-9.3,7.5-15.6,7.5c-2.8,0-6-0.7-9.5-2.1c-29.1-11.8-53.2-17.7-72.1-17.7
			c-11.4,0-20,2.1-25.8,6.1c-6,4-8.8,8.8-8.8,14.2c0,6,3,11.1,8.8,15.6C581.3,474.9,591,479.5,606.9,485.8z"/>
		<path class="st1" d="M443.6,516.2c-8.2-18.8-12.3-38.4-12.3-58.9c0-25.8,6.3-50.5,18.8-74.2c12.5-23.5,30-43,52.8-58.2
			c22.6-15.3,48.9-23.5,78.9-24.9c20.3-0.9,39.8,0.2,58.2,3c18.4,3,39.6,8.6,63.7,16.7c4.9,1.8,8.8,4.6,11.2,8.2s3.7,7.7,3.7,12.3
			c0,6.3-2.1,11.9-6.5,16.7c-4.4,4.7-9.6,7.2-16,7.2c-1.8,0-4.6-0.5-8.2-1.4c-34.9-12.3-65.8-18.4-92.6-18.4
			c-37.2,0-66.3,11.6-87.2,34.7c-9.5,10.5-17,22.5-22.5,36.1c-5.4,13.7-8.2,27.7-8.2,42.3c0,30.3,11.1,55.1,33.3,74.2
			c10.3,9.5,21.4,17.2,33,23.2c11.6,6,25.6,12.1,41.9,18.4c16.8,6.8,29.8,12.8,39.1,18.1c9.3,5.3,17.2,12.1,23.5,20.7
			c6.3,8.6,10,19.8,10.9,33.3c0.9,18.6-5.4,34.4-19.1,47.4c-13.7,13-30,20-48.9,21.4c-24,1.4-48.8-1.2-74.2-7.9
			c-25.4-6.5-48.8-17.5-70.2-33c-6.3-4.6-9.5-10.2-9.5-17c0-6.3,2.5-11.9,7.2-16.7c4.7-4.7,10.2-7.2,16-7.2c5.4,0,9.8,1.4,13,4
			c14,10,30.5,17.9,49.3,23.9c18.8,6,36.1,8.8,52.1,8.8c11.8,0,21.2-1.8,28.2-5.1c7-3.3,10.5-8.2,10.5-14.6c0-7.7-3.3-13.7-9.8-18.1
			c-6.7-4.4-17.9-9.6-33.7-16c-18.1-6.8-34.2-13.7-48.1-20.7c-13.9-7-27.7-16.7-41.9-28.9C464,551.4,451.7,534.9,443.6,516.2z"/>
		<path class="st1" d="M606.9,485.8c25.8,10.5,48.6,21.4,68.4,33c19.8,11.6,37.4,27.9,53.2,48.9c15.6,21.1,23.5,46.8,23.5,77.2
			c0,33.5-7.5,62.4-22.5,86.5s-35.4,42.5-61.6,55.1c-26.1,12.6-55.4,19.1-88.2,19.1c-20.9,0-42.6-2.8-65.4-8.2
			c-26.3-5.4-51.7-14.7-76.3-27.9c-7.7-4-11.6-10.2-11.6-18.4c0-6.3,2.1-12.1,6.5-17c4.4-4.9,9.6-7.5,16-7.5c3.7,0,7.2,0.9,10.9,2.8
			c19.1,10,38.9,17.7,59.6,23.2c20.7,5.4,40.5,8.2,59.6,8.2c37.2,0,67.9-9.8,91.9-29.3c24-19.5,36.1-48.4,36.1-86.5
			c0-20.9-5.6-38.8-16.7-53.5c-11.1-14.7-24.4-26.5-39.8-35.1c-15.4-8.6-34.6-17.7-57.2-27.2c-23.2-10.3-37.7-17.9-43.5-22.5
			c-8.2-6.3-14.4-14.2-18.8-23.5c-4.4-9.3-6.5-18.8-6.5-28.2c0-17.7,6.7-32.8,20-45.3s33-18.8,58.9-18.8c25.8,0,55.8,7,89.8,21.1
			c9.1,4,13.7,10.7,13.7,19.8c0,6-2.1,11.4-6.1,16.3s-9.3,7.5-15.6,7.5c-2.8,0-6-0.7-9.5-2.1c-29.1-11.8-53.2-17.7-72.1-17.7
			c-11.4,0-20,2.1-25.8,6.1c-6,4-8.8,8.8-8.8,14.2c0,6,3,11.1,8.8,15.6C581.3,474.9,591,479.5,606.9,485.8z"/>
		<path class="st1" d="M443.6,516.2c-8.2-18.8-12.3-38.4-12.3-58.9c0-25.8,6.3-50.5,18.8-74.2c12.5-23.5,30-43,52.8-58.2
			c22.6-15.3,48.9-23.5,78.9-24.9c20.3-0.9,39.8,0.2,58.2,3c18.4,3,39.6,8.6,63.7,16.7c4.9,1.8,8.8,4.6,11.2,8.2s3.7,7.7,3.7,12.3
			c0,6.3-2.1,11.9-6.5,16.7c-4.4,4.7-9.6,7.2-16,7.2c-1.8,0-4.6-0.5-8.2-1.4c-34.9-12.3-65.8-18.4-92.6-18.4
			c-37.2,0-66.3,11.6-87.2,34.7c-9.5,10.5-17,22.5-22.5,36.1c-5.4,13.7-8.2,27.7-8.2,42.3c0,30.3,11.1,55.1,33.3,74.2
			c10.3,9.5,21.4,17.2,33,23.2c11.6,6,25.6,12.1,41.9,18.4c16.8,6.8,29.8,12.8,39.1,18.1c9.3,5.3,17.2,12.1,23.5,20.7
			c6.3,8.6,10,19.8,10.9,33.3c0.9,18.6-5.4,34.4-19.1,47.4c-13.7,13-30,20-48.9,21.4c-24,1.4-48.8-1.2-74.2-7.9
			c-25.4-6.5-48.8-17.5-70.2-33c-6.3-4.6-9.5-10.2-9.5-17c0-6.3,2.5-11.9,7.2-16.7c4.7-4.7,10.2-7.2,16-7.2c5.4,0,9.8,1.4,13,4
			c14,10,30.5,17.9,49.3,23.9c18.8,6,36.1,8.8,52.1,8.8c11.8,0,21.2-1.8,28.2-5.1c7-3.3,10.5-8.2,10.5-14.6c0-7.7-3.3-13.7-9.8-18.1
			c-6.7-4.4-17.9-9.6-33.7-16c-18.1-6.8-34.2-13.7-48.1-20.7c-13.9-7-27.7-16.7-41.9-28.9C464,551.4,451.7,534.9,443.6,516.2z"/>
		<g>
			<g>
				<path class="st2" d="M378,565.6c-9.6,0-18.6-6.3-21.4-16.1c-0.7-2.3-16.1-56.8-16.1-97.7c0-83.5,36.5-152.1,105.4-198
					c10.2-6.8,24-4,30.9,6.1c6.8,10.2,4,24-6.1,30.9c-56.8,37.9-85.6,91.9-85.6,160.9c0,34.6,14.2,85.1,14.4,85.6
					c3.3,11.8-3.5,24.2-15.3,27.5C382.2,565.3,380.1,565.6,378,565.6z"/>
			</g>
			<g>
				<path class="st2" d="M274.3,450.4c-0.5,0-1.1,0-1.8,0c-12.3-0.9-21.4-11.6-20.5-23.9c0.4-5.3,10.7-129.6,114.2-222.4
					c9.1-8.2,23.2-7.4,31.4,1.8c8.2,9.1,7.4,23.2-1.8,31.4c-90,80.9-99.3,191.4-99.3,192.6C295.7,441.4,285.9,450.4,274.3,450.4z"/>
			</g>
		</g>
	</g>
</g>
</svg>
