<?xml version="1.0" encoding="utf-8"?>
<!-- Generator: Adobe Illustrator 24.0.1, SVG Export Plug-In . SVG Version: 6.00 Build 0)  -->
<svg version="1.1" id="Layer_1" xmlns="http://www.w3.org/2000/svg" xmlns:xlink="http://www.w3.org/1999/xlink" x="0px" y="0px"
	 viewBox="0 0 1000 700" style="enable-background:new 0 0 1000 700;" xml:space="preserve">
<style type="text/css">
	.st0{fill:#34846F;}
	.st1{fill:#7FD1AE;}
</style>
<g>
	<g>
		<path class="st0" d="M549.5,239.6c14.7,6,27.7,12.2,39,18.8c11.3,6.6,21.3,15.9,30.3,27.9c8.9,12,13.4,26.7,13.4,44
			c0,19.1-4.3,35.6-12.8,49.3c-8.5,13.7-20.2,24.2-35.1,31.4c-14.9,7.2-31.6,10.9-50.3,10.9c-11.9,0-24.3-1.6-37.3-4.7
			c-15-3.1-29.5-8.4-43.5-15.9c-4.4-2.3-6.6-5.8-6.6-10.5c0-3.6,1.2-6.9,3.7-9.7c2.5-2.8,5.5-4.3,9.1-4.3c2.1,0,4.1,0.5,6.2,1.6
			c10.9,5.7,22.2,10.1,34,13.2c11.8,3.1,23.1,4.7,34,4.7c21.2,0,38.7-5.6,52.4-16.7c13.7-11.1,20.6-27.6,20.6-49.3
			c0-11.9-3.2-22.1-9.5-30.5c-6.3-8.4-13.9-15.1-22.7-20c-8.8-4.9-19.7-10.1-32.6-15.5c-13.2-5.9-21.5-10.2-24.8-12.8
			c-4.7-3.6-8.2-8.1-10.7-13.4c-2.5-5.3-3.7-10.7-3.7-16.1c0-10.1,3.8-18.7,11.4-25.8c7.6-7.1,18.8-10.7,33.6-10.7
			c14.7,0,31.8,4,51.2,12c5.2,2.3,7.8,6.1,7.8,11.3c0,3.4-1.2,6.5-3.5,9.3c-2.3,2.8-5.3,4.3-8.9,4.3c-1.6,0-3.4-0.4-5.4-1.2
			c-16.6-6.7-30.3-10.1-41.1-10.1c-6.5,0-11.4,1.2-14.7,3.5c-3.4,2.3-5,5-5,8.1c0,3.4,1.7,6.3,5,8.9
			C534.9,233.4,540.4,236,549.5,239.6z"/>
		<path class="st0" d="M456.4,256.9c-4.7-10.7-7-21.9-7-33.6c0-14.7,3.6-28.8,10.7-42.3c7.1-13.4,17.1-24.5,30.1-33.2
			c12.9-8.7,27.9-13.4,45-14.2c11.6-0.5,22.7,0.1,33.2,1.7c10.5,1.7,22.6,4.9,36.3,9.5c2.8,1,5,2.6,6.4,4.7c1.4,2.1,2.1,4.4,2.1,7
			c0,3.6-1.2,6.8-3.7,9.5c-2.5,2.7-5.5,4.1-9.1,4.1c-1,0-2.6-0.3-4.7-0.8c-19.9-7-37.5-10.5-52.8-10.5c-21.2,0-37.8,6.6-49.7,19.8
			c-5.4,6-9.7,12.8-12.8,20.6c-3.1,7.8-4.7,15.8-4.7,24.1c0,17.3,6.3,31.4,19,42.3c5.9,5.4,12.2,9.8,18.8,13.2
			c6.6,3.4,14.6,6.9,23.9,10.5c9.6,3.9,17,7.3,22.3,10.3c5.3,3,9.8,6.9,13.4,11.8c3.6,4.9,5.7,11.3,6.2,19
			c0.5,10.6-3.1,19.6-10.9,27c-7.8,7.4-17.1,11.4-27.9,12.2c-13.7,0.8-27.8-0.7-42.3-4.5c-14.5-3.7-27.8-10-40-18.8
			c-3.6-2.6-5.4-5.8-5.4-9.7c0-3.6,1.4-6.8,4.1-9.5c2.7-2.7,5.8-4.1,9.1-4.1c3.1,0,5.6,0.8,7.4,2.3c8,5.7,17.4,10.2,28.1,13.6
			c10.7,3.4,20.6,5,29.7,5c6.7,0,12.1-1,16.1-2.9c4-1.9,6-4.7,6-8.3c0-4.4-1.9-7.8-5.6-10.3c-3.8-2.5-10.2-5.5-19.2-9.1
			c-10.3-3.9-19.5-7.8-27.4-11.8c-7.9-4-15.8-9.5-23.9-16.5C468,277,461,267.6,456.4,256.9z"/>
		<g>
			<g>
				<path class="st1" d="M419,285.1c-5.5,0-10.6-3.6-12.2-9.2c-0.4-1.3-9.2-32.4-9.2-55.7c0-47.6,20.8-86.7,60.1-112.9
					c5.8-3.9,13.7-2.3,17.6,3.5c3.9,5.8,2.3,13.7-3.5,17.6C439.4,150,423,180.8,423,220.1c0,19.7,8.1,48.5,8.2,48.8
					c1.9,6.7-2,13.8-8.7,15.7C421.4,284.9,420.2,285.1,419,285.1z"/>
			</g>
			<g>
				<path class="st1" d="M359.9,219.4c-0.3,0-0.6,0-1,0c-7-0.5-12.2-6.6-11.7-13.6c0.2-3,6.1-73.9,65.1-126.8
					c5.2-4.7,13.2-4.2,17.9,1c4.7,5.2,4.2,13.2-1,17.9C377.9,144,372.6,207,372.6,207.7C372.1,214.3,366.5,219.4,359.9,219.4z"/>
			</g>
		</g>
	</g>
	<g>
		<path class="st0" d="M51,598.4c-1.2-1.7-1.8-3.9-1.6-6.6c0.1-2.7,1.7-5,4.8-6.9c1.9-1.2,4-1.7,6.2-1.6c2.2,0.2,4.3,1.3,6.4,3.4
			c3.5,3.5,7.3,6.3,11.2,8.2c3.9,2,8.8,2.9,14.6,2.9c1.8-0.1,3.8-0.4,6-0.8c2.2-0.4,4.1-1.4,5.8-2.9c1.6-1.5,2.5-3.9,2.5-7
			c0-2.7-0.9-4.8-2.7-6.4c-1.8-1.6-4.2-2.9-7.2-4c-3-1.1-6.3-2.1-10-3.1c-3.8-1.1-7.7-2.3-11.6-3.7c-4-1.3-7.6-3.1-10.9-5.2
			c-3.3-2.1-6-5-8-8.5c-2.1-3.5-3.1-8-3.1-13.3c0-6.1,1.7-11.3,5.1-15.5c3.4-4.3,7.8-7.6,13.3-9.9c5.4-2.3,11.1-3.5,17.1-3.5
			c3.8,0,7.7,0.5,11.9,1.4c4.1,0.9,8.1,2.4,11.9,4.4c3.8,2,6.9,4.7,9.5,8c1.3,1.8,2.1,4,2.4,6.6c0.2,2.6-0.9,4.9-3.5,6.9
			c-1.8,1.5-4,2.1-6.4,1.9c-2.4-0.2-4.5-1-6-2.5c-2.1-2.7-4.8-4.8-8.3-6.4c-3.5-1.6-7.5-2.4-12-2.4c-1.8,0-3.8,0.2-5.9,0.6
			c-2.1,0.4-4,1.3-5.6,2.7c-1.6,1.4-2.4,3.6-2.4,6.7c0,2.8,0.9,5,2.7,6.7c1.8,1.6,4.3,3,7.4,4c3.1,1,6.4,2,10,3
			c3.7,1,7.4,2.1,11.2,3.5c3.8,1.3,7.3,3.1,10.4,5.3c3.2,2.2,5.7,5,7.7,8.5c1.9,3.5,2.9,7.9,2.9,13.3c0,6.2-1.8,11.5-5.5,15.9
			c-3.7,4.4-8.2,7.7-13.7,10c-5.5,2.3-11.1,3.4-16.8,3.4c-7.2,0-14.4-1.3-21.6-3.7C61.8,609.2,55.8,604.8,51,598.4z"/>
		<path class="st0" d="M188.4,514c6.9,0,13,0.7,18.2,2.2c5.2,1.5,9.2,3.5,12.1,6.1c2.9,2.6,4.3,5.8,4.3,9.4c0,2.4-0.7,4.7-2.2,6.9
			c-1.5,2.1-3.6,3.2-6.4,3.2c-2,0-3.6-0.3-4.8-0.8c-1.3-0.5-2.4-1.2-3.4-2.1c-1-0.9-2.1-1.6-3.5-2.4c-1.2-0.7-3.1-1.3-5.6-1.7
			c-2.5-0.4-4.4-0.6-5.6-0.6c-6.2,0-11.5,1.3-15.8,4c-4.3,2.7-7.7,6.3-10,10.9c-2.3,4.6-3.5,9.8-3.5,15.8c0,5.9,1.2,11.1,3.6,15.6
			c2.4,4.6,5.7,8.2,9.9,10.9c4.2,2.7,9.1,4,14.5,4c3,0,5.7-0.2,7.9-0.5c2.2-0.4,4-0.9,5.5-1.6c1.7-1,3.2-2,4.6-3.1
			c1.3-1.1,3.4-1.6,6-1.6c3.2,0,5.6,1,7.3,3c1.7,2,2.6,4.5,2.6,7.4c0,3-1.7,5.8-5.1,8.3c-3.4,2.5-7.9,4.5-13.4,6
			c-5.5,1.5-11.6,2.3-18,2.3c-9.6,0-18-2.2-25.1-6.7c-7.1-4.4-12.5-10.5-16.4-18.2s-5.8-16.3-5.8-25.8c0-10,2-18.8,6.1-26.4
			c4.1-7.6,9.8-13.6,17-17.9C170.7,516.1,179,514,188.4,514z"/>
		<path class="st0" d="M291.3,514c8.8,0,15.5,1.9,20,5.7c4.6,3.8,7.7,8.8,9.4,15.1c1.7,6.3,2.6,13.3,2.6,20.9v46.8
			c0,3.2-1,5.8-3.1,8c-2.1,2.1-4.7,3.2-7.9,3.2c-3.2,0-5.8-1.1-7.9-3.2c-2.1-2.1-3.1-4.8-3.1-8v-46.8c0-4-0.5-7.6-1.5-10.9
			c-1-3.2-2.7-5.8-5.3-7.8c-2.6-1.9-6.2-2.9-11-2.9c-4.6,0-8.6,1-11.9,2.9c-3.3,2-5.8,4.5-7.4,7.8c-1.6,3.2-2.5,6.9-2.5,10.9v46.8
			c0,3.2-1,5.8-3.1,8c-2.1,2.1-4.7,3.2-7.9,3.2c-3.2,0-5.8-1.1-7.9-3.2c-2.1-2.1-3.1-4.8-3.1-8v-113c0-3.2,1-5.8,3.1-8
			c2.1-2.1,4.7-3.2,7.9-3.2c3.2,0,5.8,1.1,7.9,3.2c2.1,2.1,3.1,4.8,3.1,8v45.4l-2.7-0.5c1.1-2.1,2.6-4.3,4.6-6.7
			c1.9-2.4,4.3-4.6,7.1-6.7c2.8-2.1,5.9-3.7,9.3-5C283.6,514.6,287.3,514,291.3,514z"/>
		<path class="st0" d="M442,564.8c0,10-2.2,18.8-6.7,26.4c-4.5,7.6-10.4,13.6-17.9,17.8c-7.5,4.3-15.9,6.4-25.1,6.4
			c-9.3,0-17.6-2.1-25.1-6.4c-7.5-4.3-13.5-10.2-17.9-17.8c-4.5-7.6-6.7-16.4-6.7-26.4c0-10,2.2-18.8,6.7-26.4
			c4.4-7.6,10.4-13.6,17.9-17.9c7.5-4.3,15.9-6.5,25.1-6.5c9.3,0,17.6,2.2,25.1,6.5c7.5,4.3,13.5,10.3,17.9,17.9
			C439.8,546,442,554.8,442,564.8z M420.1,564.8c0-6.2-1.3-11.6-3.7-16.2c-2.5-4.6-5.9-8.1-10.1-10.7c-4.2-2.6-8.9-3.8-14-3.8
			c-5.1,0-9.8,1.3-14,3.8c-4.2,2.6-7.6,6.1-10.1,10.7c-2.5,4.6-3.7,10-3.7,16.2c0,6.1,1.2,11.4,3.7,16c2.5,4.6,5.9,8.1,10.1,10.7
			c4.2,2.6,8.9,3.8,14,3.8c5.1,0,9.8-1.3,14-3.8c4.2-2.6,7.6-6.1,10.1-10.7C418.8,576.2,420.1,570.9,420.1,564.8z"/>
		<path class="st0" d="M541.3,514c3.2,0,5.8,1,7.9,3.1c2.1,2.1,3.1,4.8,3.1,8v77.4c0,3.2-1,5.8-3.1,8c-2.1,2.1-4.7,3.2-7.9,3.2
			c-3.2,0-5.8-1.1-7.9-3.2c-2.1-2.1-3.1-4.8-3.1-8v-9l4,1.6c0,1.6-0.9,3.5-2.6,5.8c-1.7,2.3-4,4.5-6.9,6.7
			c-2.9,2.2-6.4,4.1-10.3,5.6c-4,1.5-8.3,2.3-12.9,2.3c-8.4,0-16-2.2-22.9-6.5c-6.8-4.3-12.2-10.3-16.2-17.9
			c-4-7.6-5.9-16.4-5.9-26.2c0-10,2-18.8,5.9-26.4c4-7.6,9.3-13.6,16-17.9c6.7-4.3,14.1-6.5,22.3-6.5c5.2,0,10.1,0.8,14.4,2.4
			c4.4,1.6,8.2,3.6,11.4,6c3.2,2.4,5.7,4.9,7.5,7.4c1.8,2.5,2.7,4.6,2.7,6.3l-6.6,2.4v-13.3c0-3.2,1-5.8,3.1-8
			C535.5,515,538.1,514,541.3,514z M504.4,595.3c5.4,0,10.1-1.3,14.1-4c4-2.7,7.2-6.3,9.4-11c2.3-4.6,3.4-9.8,3.4-15.5
			c0-5.9-1.1-11.1-3.4-15.7c-2.3-4.6-5.4-8.3-9.4-11c-4-2.7-8.7-4-14.1-4c-5.2,0-9.9,1.3-13.9,4c-4,2.7-7.2,6.3-9.4,11
			c-2.3,4.6-3.4,9.9-3.4,15.7c0,5.7,1.1,10.9,3.4,15.5c2.3,4.6,5.4,8.3,9.4,11C494.5,594,499.1,595.3,504.4,595.3z"/>
		<path class="st0" d="M619.6,514c6.9,0,13,0.7,18.2,2.2c5.2,1.5,9.2,3.5,12.1,6.1c2.9,2.6,4.3,5.8,4.3,9.4c0,2.4-0.7,4.7-2.2,6.9
			c-1.5,2.1-3.6,3.2-6.4,3.2c-2,0-3.6-0.3-4.8-0.8c-1.3-0.5-2.4-1.2-3.4-2.1c-1-0.9-2.1-1.6-3.5-2.4c-1.2-0.7-3.1-1.3-5.6-1.7
			c-2.5-0.4-4.4-0.6-5.6-0.6c-6.2,0-11.5,1.3-15.8,4c-4.3,2.7-7.7,6.3-10,10.9c-2.3,4.6-3.5,9.8-3.5,15.8c0,5.9,1.2,11.1,3.6,15.6
			c2.4,4.6,5.7,8.2,9.9,10.9c4.2,2.7,9.1,4,14.5,4c3,0,5.7-0.2,7.9-0.5c2.2-0.4,4-0.9,5.5-1.6c1.7-1,3.2-2,4.6-3.1
			c1.3-1.1,3.4-1.6,6-1.6c3.2,0,5.6,1,7.3,3c1.7,2,2.6,4.5,2.6,7.4c0,3-1.7,5.8-5.1,8.3c-3.4,2.5-7.9,4.5-13.4,6
			c-5.5,1.5-11.6,2.3-18,2.3c-9.6,0-18-2.2-25.1-6.7c-7.1-4.4-12.5-10.5-16.4-18.2s-5.8-16.3-5.8-25.8c0-10,2-18.8,6.1-26.4
			c4.1-7.6,9.8-13.6,17-17.9C601.9,516.1,610.2,514,619.6,514z"/>
		<path class="st0" d="M722.5,514c8.8,0,15.5,1.9,20,5.7c4.6,3.8,7.7,8.8,9.4,15.1c1.7,6.3,2.6,13.3,2.6,20.9v46.8
			c0,3.2-1,5.8-3.1,8c-2.1,2.1-4.7,3.2-7.9,3.2c-3.2,0-5.8-1.1-7.9-3.2c-2.1-2.1-3.1-4.8-3.1-8v-46.8c0-4-0.5-7.6-1.5-10.9
			c-1-3.2-2.7-5.8-5.3-7.8c-2.6-1.9-6.2-2.9-11-2.9c-4.6,0-8.6,1-11.9,2.9c-3.3,2-5.8,4.5-7.4,7.8c-1.6,3.2-2.5,6.9-2.5,10.9v46.8
			c0,3.2-1,5.8-3.1,8c-2.1,2.1-4.7,3.2-7.9,3.2c-3.2,0-5.8-1.1-7.9-3.2c-2.1-2.1-3.1-4.8-3.1-8v-113c0-3.2,1-5.8,3.1-8
			c2.1-2.1,4.7-3.2,7.9-3.2c3.2,0,5.8,1.1,7.9,3.2c2.1,2.1,3.1,4.8,3.1,8v45.4l-2.7-0.5c1.1-2.1,2.6-4.3,4.6-6.7
			c1.9-2.4,4.3-4.6,7.1-6.7c2.8-2.1,5.9-3.7,9.3-5C714.8,514.6,718.5,514,722.5,514z"/>
		<path class="st0" d="M824.4,615.4c-10.4,0-19.4-2.2-27-6.5c-7.6-4.3-13.5-10.2-17.6-17.6c-4.1-7.4-6.1-15.8-6.1-25.2
			c0-11,2.2-20.3,6.7-28.1c4.4-7.7,10.3-13.7,17.5-17.8c7.2-4.1,14.8-6.2,22.9-6.2c6.2,0,12.1,1.3,17.6,3.8
			c5.5,2.6,10.5,6.1,14.7,10.5c4.3,4.5,7.6,9.6,10.1,15.5c2.5,5.9,3.7,12.1,3.7,18.7c-0.1,2.9-1.3,5.3-3.5,7.1
			c-2.2,1.8-4.8,2.7-7.7,2.7H786l-5.5-18.3h67.1l-4,3.7v-4.9c-0.2-3.5-1.5-6.7-3.7-9.5c-2.3-2.8-5.1-5-8.4-6.7
			c-3.4-1.6-6.9-2.5-10.7-2.5c-3.7,0-7.1,0.5-10.2,1.5c-3.2,1-5.9,2.6-8.2,4.9c-2.3,2.3-4.1,5.4-5.5,9.3c-1.3,3.9-2,8.8-2,14.8
			c0,6.6,1.4,12.2,4.1,16.7c2.7,4.6,6.3,8,10.6,10.4c4.3,2.4,8.9,3.6,13.8,3.6c4.5,0,8.1-0.4,10.8-1.1c2.7-0.7,4.8-1.6,6.5-2.7
			c1.6-1,3.1-1.9,4.5-2.7c2.2-1.1,4.3-1.6,6.2-1.6c2.7,0,4.9,0.9,6.7,2.7c1.8,1.8,2.7,4,2.7,6.4c0,3.3-1.7,6.3-5.1,9
			c-3.2,2.7-7.6,5-13.3,7C836.4,614.4,830.5,615.4,824.4,615.4z"/>
		<path class="st0" d="M897.2,613.6c-3.2,0-5.8-1.1-7.9-3.2c-2.1-2.1-3.1-4.8-3.1-8v-75.5c0-3.2,1-5.8,3.1-8
			c2.1-2.1,4.7-3.2,7.9-3.2c3.2,0,5.8,1.1,7.9,3.2c2.1,2.1,3.1,4.8,3.1,8v17.2l-1.3-12.3c1.3-2.9,3.1-5.5,5.2-7.8
			c2.1-2.3,4.5-4.1,7.2-5.7c2.7-1.5,5.5-2.7,8.6-3.4c3-0.7,6.1-1.1,9.1-1.1c3.7,0,6.7,1,9.2,3.1c2.5,2.1,3.7,4.5,3.7,7.3
			c0,4-1,6.9-3.1,8.7c-2.1,1.8-4.3,2.7-6.8,2.7c-2.3,0-4.4-0.4-6.3-1.3c-1.9-0.9-4.1-1.3-6.5-1.3c-2.2,0-4.4,0.5-6.7,1.6
			c-2.3,1-4.3,2.7-6.2,4.8c-1.9,2.2-3.4,4.9-4.6,8.1c-1.2,3.2-1.7,7-1.7,11.4v43.3c0,3.2-1,5.8-3.1,8
			C902.9,612.5,900.3,613.6,897.2,613.6z"/>
	</g>
</g>
</svg>
